<svg xmlns="http://www.w3.org/2000/svg" viewBox="0 0 1200 400" preserveAspectRatio="xMidYMid meet">
  <!-- Background -->
  <rect width="1200" height="400" fill="#1a1a2e"/>
  
  <!-- Abstract Geometric Elements -->
  <!-- Circles -->
  <circle cx="150" cy="100" r="80" fill="#242442" opacity="0.7"/>
  <circle cx="1050" cy="300" r="100" fill="#242442" opacity="0.7"/>
  
  <!-- Large Wave -->
  <path d="M0,200 C200,150 400,300 600,200 C800,100 1000,250 1200,200 L1200,400 L0,400 Z" 
        fill="#16213e" opacity="0.6"/>
  
  <!-- Small Wave -->
  <path d="M0,230 C150,200 300,270 450,230 C600,200 750,270 900,230 C1050,200 1200,270 1200,230 L1200,400 L0,400 Z" 
        fill="#0f3460" opacity="0.8"/>
  
  <!-- Dots Pattern -->
  <g fill="#30304d" opacity="0.5">
    <circle cx="100" cy="70" r="4"/>
    <circle cx="150" cy="70" r="4"/>
    <circle cx="200" cy="70" r="4"/>
    <circle cx="100" cy="100" r="4"/>
    <circle cx="150" cy="100" r="4"/>
    <circle cx="200" cy="100" r="4"/>
    <circle cx="100" cy="130" r="4"/>
    <circle cx="150" cy="130" r="4"/>
    <circle cx="200" cy="130" r="4"/>
    
    <circle cx="900" cy="270" r="4"/>
    <circle cx="950" cy="270" r="4"/>
    <circle cx="1000" cy="270" r="4"/>
    <circle cx="900" cy="300" r="4"/>
    <circle cx="950" cy="300" r="4"/>
    <circle cx="1000" cy="300" r="4"/>
    <circle cx="900" cy="330" r="4"/>
    <circle cx="950" cy="330" r="4"/>
    <circle cx="1000" cy="330" r="4"/>
  </g>
  
  <!-- Grid Lines -->
  <g stroke="#2c2c54" stroke-width="1" opacity="0.3">
    <line x1="0" y1="70" x2="1200" y2="70"/>
    <line x1="0" y1="140" x2="1200" y2="140"/>
    <line x1="0" y1="210" x2="1200" y2="210"/>
    <line x1="0" y1="280" x2="1200" y2="280"/>
    <line x1="0" y1="350" x2="1200" y2="350"/>
    
    <line x1="100" y1="0" x2="100" y2="400"/>
    <line x1="300" y1="0" x2="300" y2="400"/>
    <line x1="500" y1="0" x2="500" y2="400"/>
    <line x1="700" y1="0" x2="700" y2="400"/>
    <line x1="900" y1="0" x2="900" y2="400"/>
    <line x1="1100" y1="0" x2="1100" y2="400"/>
  </g>
  
  <!-- Floating Shapes -->
  <polygon points="850,35 900,100 800,100" fill="#30304d" opacity="0.5"/>
  <polygon points="300,300 350,365 250,365" fill="#30304d" opacity="0.5"/>
  
  <!-- Floating Rectangles -->
  <rect x="600" y="70" width="100" height="35" rx="10" fill="#e94560" opacity="0.15"/>
  <rect x="650" y="100" width="70" height="20" rx="5" fill="#e94560" opacity="0.1"/>
  
  <!-- Glow Effects -->
  <circle cx="200" cy="270" r="5" fill="#e94560" opacity="0.6"/>
  <circle cx="1000" cy="130" r="5" fill="#e94560" opacity="0.6"/>
  <circle cx="600" cy="330" r="5" fill="#e94560" opacity="0.6"/>
  
  <!-- Subtle gradient overlay -->
  <rect width="1200" height="400" fill="url(#gradient)" opacity="0.2"/>
  
  <!-- Definitions -->
  <defs>
    <radialGradient id="gradient" cx="50%" cy="50%" r="70%" fx="50%" fy="50%">
      <stop offset="0%" stop-color="#e94560" stop-opacity="0.1"/>
      <stop offset="100%" stop-color="#1a1a2e" stop-opacity="0"/>
    </radialGradient>
  </defs>
</svg>